<svg id="Flat" height="512" viewBox="0 0 512 512" width="512" xmlns="http://www.w3.org/2000/svg"><rect fill="#8acce7" height="48" rx="24" width="304" x="112" y="24"/><path d="m416 144v320a24 24 0 0 1 -24 24h-272a24 24 0 0 1 -24-24v-320a24 24 0 0 1 24-24 24 24 0 0 0 24-24v-24h224v24a24 24 0 0 0 24 24 24 24 0 0 1 24 24z" fill="#eedc9a"/><path d="m392 272a15.99555 15.99555 0 0 1 -16 16 15.7888 15.7888 0 0 1 -5.67993-1.06006 341.72509 341.72509 0 0 0 -3.17993 57.1001c.28979-.01.56982-.04.85986-.04a15.997 15.997 0 0 1 1.54 31.91992q1.875 15.21021 5.1001 30.33008l.6499 3.05a32.00075 32.00075 0 0 1 -24.59 37.98996 32.36959 32.36959 0 0 1 -6.73.72 32.04439 32.04439 0 0 1 -22.74-9.53 15.983 15.983 0 0 1 -9.23-14.48 16.31809 16.31809 0 0 1 .31006-3.15l-.25-1.20008q-2.14527-9.98992-3.77006-20.03992a405.44536 405.44536 0 0 1 21.83984-211.1 32.01462 32.01462 0 0 1 41.36016-18.38 31.448 31.448 0 0 1 5.01 2.45 32.00789 32.00789 0 0 1 13.37012 38.91 345.37593 345.37593 0 0 0 -13.74024 44.52 15.99187 15.99187 0 0 1 15.87012 15.99z" fill="#a2c32a"/><path d="m197.1001 276.92993a192.66771 192.66771 0 0 0 -.16016 28.73q.52515 7.93506 1.7002 15.80005a15.969 15.969 0 0 1 5.41992 25.04c1.56982 5.51 3.37988 10.96 5.43994 16.31006l.09009.24a35.69979 35.69979 0 0 1 2.40991 13.44996 35.99027 35.99027 0 0 1 -68.24 15.49 15.9837 15.9837 0 0 1 -9.68994-28.52 270.10873 270.10873 0 0 1 -8.53-47.38 15.96372 15.96372 0 0 1 -1.05-23.19007q-.015-10.90485.84009-21.75989a269.05763 269.05763 0 0 1 19.52978-80.84 15.98527 15.98527 0 0 1 13.96021-28.76c.7-1.22 1.36987-2.46008 2.07983-3.68a36.00384 36.00384 0 1 1 62.2002 36.28 196.60461 196.60461 0 0 0 -26.00007 82.78989z" fill="#a2c32a"/><path d="m128 456h256v16h-256z" fill="#eebe33"/><path d="m368.73 206.79a24.00313 24.00313 0 0 1 -10.81006 40.47c-5.13994 17.6-10.87994 35.19-17.08986 52.44a24.008 24.008 0 0 1 -17.14014 43.91q-2.71509 6.4649-5.58008 12.96008a24.00911 24.00911 0 0 1 -9.81986 43.03992 405.44536 405.44536 0 0 1 21.83984-211.1 32.01462 32.01462 0 0 1 41.36016-18.38 31.448 31.448 0 0 1 5.01 2.45l-3.91992 17.65c-1.20996 5.44993-2.5 11-3.85008 16.56z" fill="#68b840"/><path d="m364.77 188.5q-2.40015 10.78491-5.06006 21.48a16.0001 16.0001 0 0 1 -7.70994 30.02c-.1001 0-.2-.01-.3-.02q-9.29992 32.53491-21.05 64.26a15.98971 15.98971 0 1 1 -11.38 29.1599q-5.58 13.6051-11.62988 27.03a15.99189 15.99189 0 1 1 -13.33008 28.28q-7.0503 14.295-14.61011 28.36011a35.99035 35.99035 0 0 1 -66.85986-9.39014 15.99185 15.99185 0 1 1 6.90993-31.21987q15.19482-28.83 28.02-58.76a15.98653 15.98653 0 0 1 8.23-29.7 15.737 15.737 0 0 1 3.65991.43994q7.71021-20.06982 14.3501-40.53 12-36.95984 20.47-75.02991l6.37988-28.69006a35.99759 35.99759 0 0 1 70.28028 15.62012z" fill="#a2c32a"/><g fill="#68b840"><path d="m304 288a24 24 0 0 1 0-48v16a8 8 0 0 0 0 16z"/><path d="m152 264a24 24 0 0 1 0-48v16a8 8 0 0 0 0 16z"/><path d="m336 184v-16a8 8 0 0 0 0-16v-16a24 24 0 0 1 0 48z"/><path d="m219.26 152.47a36.0322 36.0322 0 0 1 3.84009 41.67 196.60461 196.60461 0 0 0 -26 82.78992 192.66771 192.66771 0 0 0 -.16016 28.73 34.72032 34.72032 0 0 1 -14.81006-50.2c.74024-1.1499 1.47022-2.32 2.2002-3.49a23.78722 23.78722 0 0 1 -.33007-3.96992 24.13048 24.13048 0 0 1 15.1001-22.29c4.77978-9.38989 9.16992-19.05 13.08984-28.84a23.98548 23.98548 0 0 1 7.07007-44.4z"/><path d="m289.91992 208.01a24.01489 24.01489 0 0 1 -15.90992 39.89991q12-36.95984 20.47-75.02991l6.37988-28.69006a35.85724 35.85724 0 0 1 12.81004-20.42994 370.8583 370.8583 0 0 1 -23.75 84.25z"/></g><path d="m307.74 108.17993a363.92569 363.92569 0 0 1 -27.47 102.11007 16.00831 16.00831 0 0 1 -8.27 29.71 15.66888 15.66888 0 0 1 -5.65991-1.04 363.532 363.532 0 0 1 -31.62012 48.71l-2.11011 2.74a26.72724 26.72724 0 0 1 -43.73-30.6499q2.05518-3.225 4.02-6.48a15.66053 15.66053 0 0 1 -.89986-5.2801 16.0143 16.0143 0 0 1 12.67993-15.66 359.681 359.681 0 0 0 18-40.4 15.99766 15.99766 0 1 1 9.66016-29.6 361.77322 361.77322 0 0 0 9.16991-42.34h-1.51a16 16 0 0 1 0-32h5.87012l2.12988-16h64z" fill="#a2c32a"/><path d="m280 160v-16a8 8 0 0 0 0-16v-16a24 24 0 0 1 0 48z" fill="#68b840"/></svg>