<svg xmlns="http://www.w3.org/2000/svg" width="124.594" height="111.55" viewBox="0 0 124.594 111.55">
  <g id="Grupo_6" data-name="Grupo 6" transform="translate(-0.615 -4.11)">
    <path id="Caminho_1" data-name="Caminho 1" d="M125.209,30.309V25.476c0-.018-.019-.037-.019-.075a1.5,1.5,0,0,0-.112-.56c-.019-.037-.019-.093-.037-.131s-.019-.056-.037-.075l-8.378-16.4a7.531,7.531,0,0,0-6.736-4.124H15.935A7.531,7.531,0,0,0,9.2,8.234L.82,24.636c-.019.018-.019.037-.037.075s-.019.093-.037.131a1.5,1.5,0,0,0-.112.56c0,.037-.019.056-.019.075v4.833A10.484,10.484,0,0,0,8.284,40.4v59.9H8a6.952,6.952,0,0,0-6.942,6.942v6.55a1.86,1.86,0,0,0,1.866,1.866H122.914a1.872,1.872,0,0,0,1.866-1.866v-6.55a6.956,6.956,0,0,0-6.96-6.942h-.28V40.4A10.484,10.484,0,0,0,125.209,30.309ZM109.889,7.842a3.806,3.806,0,0,1,3.415,2.09l7,13.678H107.388L103.4,12.675l-1.773-4.833h8.266Zm-12.222,0,3.975,10.935,1.773,4.833h-13.1L88.28,14.3,86.862,7.842Zm6.55,19.5v2.967a6.774,6.774,0,1,1-13.547,0V27.342h13.547Zm-17.279,0v2.967a6.764,6.764,0,1,1-13.529,0V27.342H86.937Zm-3.9-19.5L86.489,23.61H73.278l-.709-9.871-.448-5.9H83.037ZM56.707,17.713l.728-9.871H68.389l.728,9.871.429,5.9H56.278Zm-.56,9.629H69.676v2.967a6.764,6.764,0,1,1-13.529,0ZM62.9,40.815a10.479,10.479,0,0,0,8.64-4.553,10.456,10.456,0,0,0,17.261,0,10.474,10.474,0,0,0,17.279,0,10.451,10.451,0,0,0,7.725,4.5V100.3H105.3V57.179a5.814,5.814,0,0,0-5.8-5.822H73.035a5.814,5.814,0,0,0-5.8,5.822V100.3H12.016V40.759a10.451,10.451,0,0,0,7.725-4.5,10.474,10.474,0,0,0,17.279,0,10.456,10.456,0,0,0,17.261,0A10.471,10.471,0,0,0,62.9,40.815Zm38.664,16.365v43.068h-30.6V57.179a2.083,2.083,0,0,1,2.071-2.09H99.5A2.083,2.083,0,0,1,101.566,57.179ZM21.608,30.309V27.342H35.155v2.967a6.774,6.774,0,1,1-13.547,0Zm17.279,0V27.342H52.416v2.967a6.764,6.764,0,1,1-13.529,0Zm3.9-22.467H53.7l-.448,5.9-.709,9.871H39.335Zm-3.825,0L37.543,14.3,35.509,23.61H22.41l.616-1.679,5.15-14.088H38.962ZM12.52,9.932a3.806,3.806,0,0,1,3.415-2.09H24.2l-.616,1.679L18.435,23.61H5.523ZM4.347,30.309V27.342H17.876v2.967a6.764,6.764,0,1,1-13.529,0Zm113.472,73.726a3.225,3.225,0,0,1,3.228,3.21v4.684H4.795v-4.684A3.209,3.209,0,0,1,8,104.035Zm-3.1-66.953a6.785,6.785,0,0,1-6.774-6.774V27.342h13.529v2.967A6.781,6.781,0,0,1,114.722,37.082Z" transform="translate(0 0)" fill="#fff"/>
    <path id="Caminho_2" data-name="Caminho 2" d="M11.345,33.663V55.112A5.189,5.189,0,0,0,16.529,60.3H44.882a5.189,5.189,0,0,0,5.182-5.183V33.663a5.189,5.189,0,0,0-5.182-5.183H16.529A5.189,5.189,0,0,0,11.345,33.663Zm34.988,0V55.112a1.453,1.453,0,0,1-1.45,1.451H16.529a1.454,1.454,0,0,1-1.452-1.451V33.663a1.454,1.454,0,0,1,1.452-1.451H44.882A1.453,1.453,0,0,1,46.332,33.663ZM86.147,52.478a1.866,1.866,0,0,0-1.866,1.866v2.578a1.866,1.866,0,0,0,3.732,0V54.344A1.866,1.866,0,0,0,86.147,52.478Z" transform="translate(9.292 21.105)" fill="#fff"/>
  </g>
</svg>
