<svg xmlns="http://www.w3.org/2000/svg" width="21.5" height="16.125" viewBox="0 0 21.5 16.125">
  <path id="Icon_awesome-barcode" data-name="Icon awesome-barcode" d="M0,20.625V4.5H.756V20.625Zm1.128-.011V4.5h.384V20.614Zm1.14,0V4.5H2.64V20.614Zm1.884,0V4.5h.372V20.614Zm1.512,0V4.5h.744V20.614Zm1.884,0V4.5h.372V20.614Zm.756,0V4.5h.372V20.614Zm.756,0V4.5H9.43V20.614Zm1.5,0V4.5h.756V20.614Zm1.884,0V4.5H13.2V20.614Zm1.512,0V4.5h.756V20.614Zm1.512,0V4.5h.756V20.614Zm1.128,0V4.5h.756V20.614Zm1.9,0V4.5h1.128V20.614Zm1.5,0V4.5h.384V20.614Zm.756.011V4.5H21.5V20.625Z" transform="translate(0 -4.5)" fill="#0d47a1"/>
</svg>
