<svg xmlns="http://www.w3.org/2000/svg" width="20.236" height="15.739" viewBox="0 0 20.236 15.739">
  <path id="Icon_awesome-credit-card" data-name="Icon awesome-credit-card" d="M0,16.3a1.687,1.687,0,0,0,1.686,1.686H18.55A1.687,1.687,0,0,0,20.236,16.3V10.12H0Zm6.745-2.389a.423.423,0,0,1,.422-.422h4.778a.423.423,0,0,1,.422.422v1.405a.423.423,0,0,1-.422.422H7.167a.423.423,0,0,1-.422-.422Zm-4.5,0a.423.423,0,0,1,.422-.422H5.2a.423.423,0,0,1,.422.422v1.405a.423.423,0,0,1-.422.422H2.67a.423.423,0,0,1-.422-.422ZM20.236,3.936V5.623H0V3.936A1.687,1.687,0,0,1,1.686,2.25H18.55A1.687,1.687,0,0,1,20.236,3.936Z" transform="translate(0 -2.25)" fill="#0d47a1"/>
</svg>
