<svg xmlns="http://www.w3.org/2000/svg" width="16.875" height="13.5" viewBox="0 0 16.875 13.5">
  <path id="Icon_awesome-eye-slash" data-name="Icon awesome-eye-slash" d="M8.438,10.547A3.783,3.783,0,0,1,4.67,7.037L1.9,4.9A8.788,8.788,0,0,0,.936,6.365a.853.853,0,0,0,0,.77,8.457,8.457,0,0,0,7.5,4.678,8.19,8.19,0,0,0,2.054-.276L9.123,10.478a3.8,3.8,0,0,1-.686.069Zm8.275,1.532L13.8,9.826A8.734,8.734,0,0,0,15.94,7.135a.853.853,0,0,0,0-.77,8.457,8.457,0,0,0-7.5-4.678,8.125,8.125,0,0,0-3.884.994L1.2.089A.422.422,0,0,0,.607.163L.089.829a.422.422,0,0,0,.074.592l15.513,11.99a.422.422,0,0,0,.592-.074l.518-.666a.422.422,0,0,0-.074-.592ZM11.868,8.335l-1.036-.8A2.5,2.5,0,0,0,7.77,4.319a1.256,1.256,0,0,1,.245.744,1.23,1.23,0,0,1-.041.264l-1.941-1.5a3.752,3.752,0,0,1,2.4-.873,3.795,3.795,0,0,1,3.8,3.8,3.707,3.707,0,0,1-.367,1.585Z" transform="translate(0 0)" fill="#0d47a1"/>
</svg>
