<svg xmlns="http://www.w3.org/2000/svg" width="20.721" height="20.721" viewBox="0 0 20.721 20.721">
  <g id="Group_19" data-name="Group 19" transform="translate(457.347 -3198.154)">
    <g id="g992" transform="translate(-453.149 3209.843)">
      <path id="path994" d="M-83.439-29.04a3.025,3.025,0,0,1-2.152-.891L-88.7-33.039a.591.591,0,0,0-.817,0l-3.119,3.119a3.025,3.025,0,0,1-2.152.891H-95.4l3.936,3.936a3.148,3.148,0,0,0,4.452,0l3.948-3.948Z" transform="translate(95.4 33.202)" fill="#0d47a1"/>
    </g>
    <path id="path998" d="M-4.272-33.889A3.025,3.025,0,0,1-2.119-33L1-29.878a.578.578,0,0,0,.817,0l3.108-3.108a3.025,3.025,0,0,1,2.152-.891h.374L3.5-37.825a3.148,3.148,0,0,0-4.452,0l-3.936,3.936Z" transform="translate(-448.265 3236.902)" fill="#0d47a1"/>
    <g id="g1000" transform="translate(-457.347 3203.894)">
      <path id="path1002" d="M-138.115-16.707l-2.385-2.385a.454.454,0,0,1-.169.034h-1.085a2.143,2.143,0,0,0-1.506.624l-3.108,3.108a1.487,1.487,0,0,1-1.055.436,1.488,1.488,0,0,1-1.055-.436l-3.12-3.12a2.144,2.144,0,0,0-1.506-.624h-1.334a.452.452,0,0,1-.16-.032l-2.395,2.395a3.148,3.148,0,0,0,0,4.452L-154.6-9.86a.453.453,0,0,1,.16-.032h1.334a2.144,2.144,0,0,0,1.506-.624l3.119-3.119a1.528,1.528,0,0,1,2.11,0l3.108,3.108a2.143,2.143,0,0,0,1.506.624h1.085a.455.455,0,0,1,.169.034l2.385-2.385a3.148,3.148,0,0,0,0-4.452" transform="translate(157.913 19.102)" fill="#0d47a1"/>
    </g>
  </g>
</svg>
