<svg xmlns="http://www.w3.org/2000/svg" width="18.787" height="19.314" viewBox="0 0 18.787 19.314">
  <path id="Icon_material-settings" data-name="Icon material-settings" d="M19.977,13.6a6.659,6.659,0,0,0,0-1.893l2.038-1.593a.487.487,0,0,0,.116-.618L20.2,6.158a.485.485,0,0,0-.589-.212l-2.4.966a7.056,7.056,0,0,0-1.632-.946l-.367-2.559A.471.471,0,0,0,14.733,3H10.87a.471.471,0,0,0-.473.406L10.03,5.965A7.419,7.419,0,0,0,8.4,6.911l-2.4-.966a.471.471,0,0,0-.589.212L3.473,9.5a.476.476,0,0,0,.116.618l2.038,1.593a7.659,7.659,0,0,0-.068.946,7.659,7.659,0,0,0,.068.946L3.589,15.2a.487.487,0,0,0-.116.618L5.4,19.156a.485.485,0,0,0,.589.212L8.4,18.4a7.056,7.056,0,0,0,1.632.946l.367,2.559a.471.471,0,0,0,.473.406h3.863a.471.471,0,0,0,.473-.406l.367-2.559a7.419,7.419,0,0,0,1.632-.946l2.4.966a.471.471,0,0,0,.589-.212l1.931-3.341a.487.487,0,0,0-.116-.618L19.977,13.6ZM12.8,16.037a3.38,3.38,0,1,1,3.38-3.38A3.384,3.384,0,0,1,12.8,16.037Z" transform="translate(-3.406 -3)" fill="#03255a"/>
</svg>
